<mxfile host="app.diagrams.net" modified="2024-06-01T13:54:52.728Z" agent="Mozilla/5.0 (X11; Linux x86_64) AppleWebKit/537.36 (KHTML, like Gecko) Chrome/125.0.0.0 Safari/537.36" etag="HEfpaZxzCljI4XqGc33t" version="24.4.13" type="github">
  <diagram name="Page-1" id="vxd-_dVSEoaol9O9_Bbx">
    <mxGraphModel dx="1434" dy="759" grid="1" gridSize="10" guides="1" tooltips="1" connect="1" arrows="1" fold="1" page="1" pageScale="1" pageWidth="850" pageHeight="1100" math="0" shadow="0">
      <root>
        <mxCell id="0" />
        <mxCell id="1" parent="0" />
        <mxCell id="Pq4CZ3vSwKTIHolnJaVL-7" value="" style="swimlane;startSize=0;" vertex="1" parent="1">
          <mxGeometry x="90" y="396" width="160" height="124" as="geometry" />
        </mxCell>
        <mxCell id="Pq4CZ3vSwKTIHolnJaVL-1" value="" style="image;sketch=0;aspect=fixed;html=1;points=[];align=center;fontSize=12;image=img/lib/mscae/Azure_Firewall.svg;" vertex="1" parent="Pq4CZ3vSwKTIHolnJaVL-7">
          <mxGeometry x="61" y="30" width="50" height="50" as="geometry" />
        </mxCell>
        <mxCell id="Pq4CZ3vSwKTIHolnJaVL-5" value="" style="image;aspect=fixed;html=1;points=[];align=center;fontSize=12;image=img/lib/azure2/networking/Virtual_Networks.svg;" vertex="1" parent="Pq4CZ3vSwKTIHolnJaVL-7">
          <mxGeometry x="8.5" y="3" width="33.5" height="20" as="geometry" />
        </mxCell>
        <mxCell id="Pq4CZ3vSwKTIHolnJaVL-27" value="Azure Firewall" style="text;html=1;align=center;verticalAlign=middle;whiteSpace=wrap;rounded=0;" vertex="1" parent="Pq4CZ3vSwKTIHolnJaVL-7">
          <mxGeometry x="25" y="74" width="110" height="36" as="geometry" />
        </mxCell>
        <mxCell id="Pq4CZ3vSwKTIHolnJaVL-9" value="" style="swimlane;startSize=0;" vertex="1" parent="1">
          <mxGeometry x="30" y="190" width="300" height="134" as="geometry" />
        </mxCell>
        <mxCell id="Pq4CZ3vSwKTIHolnJaVL-11" value="" style="image;aspect=fixed;html=1;points=[];align=center;fontSize=12;image=img/lib/azure2/networking/Virtual_Networks.svg;" vertex="1" parent="Pq4CZ3vSwKTIHolnJaVL-9">
          <mxGeometry x="8.5" y="3" width="33.5" height="20" as="geometry" />
        </mxCell>
        <mxCell id="Pq4CZ3vSwKTIHolnJaVL-2" value="" style="image;sketch=0;aspect=fixed;html=1;points=[];align=center;fontSize=12;image=img/lib/mscae/Application_Gateway.svg;" vertex="1" parent="Pq4CZ3vSwKTIHolnJaVL-9">
          <mxGeometry x="60" y="23" width="40" height="40" as="geometry" />
        </mxCell>
        <mxCell id="Pq4CZ3vSwKTIHolnJaVL-3" value="" style="image;aspect=fixed;html=1;points=[];align=center;fontSize=12;image=img/lib/azure2/networking/Private_Endpoint.svg;" vertex="1" parent="Pq4CZ3vSwKTIHolnJaVL-9">
          <mxGeometry x="200" y="52" width="30.54" height="28" as="geometry" />
        </mxCell>
        <mxCell id="Pq4CZ3vSwKTIHolnJaVL-16" style="edgeStyle=orthogonalEdgeStyle;rounded=0;orthogonalLoop=1;jettySize=auto;html=1;entryX=-0.098;entryY=0.5;entryDx=0;entryDy=0;entryPerimeter=0;" edge="1" parent="Pq4CZ3vSwKTIHolnJaVL-9" source="Pq4CZ3vSwKTIHolnJaVL-2" target="Pq4CZ3vSwKTIHolnJaVL-3">
          <mxGeometry relative="1" as="geometry" />
        </mxCell>
        <mxCell id="Pq4CZ3vSwKTIHolnJaVL-25" value="Private Endpoint" style="text;html=1;align=center;verticalAlign=middle;whiteSpace=wrap;rounded=0;" vertex="1" parent="Pq4CZ3vSwKTIHolnJaVL-9">
          <mxGeometry x="210.27" y="90" width="29.73" height="30" as="geometry" />
        </mxCell>
        <mxCell id="Pq4CZ3vSwKTIHolnJaVL-26" value="App Gateway" style="text;html=1;align=center;verticalAlign=middle;whiteSpace=wrap;rounded=0;" vertex="1" parent="Pq4CZ3vSwKTIHolnJaVL-9">
          <mxGeometry x="90" y="10" width="90" height="30" as="geometry" />
        </mxCell>
        <mxCell id="Pq4CZ3vSwKTIHolnJaVL-15" value="" style="swimlane;startSize=0;" vertex="1" parent="1">
          <mxGeometry x="534" y="243" width="200" height="173" as="geometry" />
        </mxCell>
        <mxCell id="Pq4CZ3vSwKTIHolnJaVL-18" value="" style="image;aspect=fixed;html=1;points=[];align=center;fontSize=12;image=img/lib/azure2/app_services/App_Service_Environments.svg;" vertex="1" parent="Pq4CZ3vSwKTIHolnJaVL-15">
          <mxGeometry x="16" y="15" width="45" height="45" as="geometry" />
        </mxCell>
        <mxCell id="Pq4CZ3vSwKTIHolnJaVL-19" value="" style="image;aspect=fixed;html=1;points=[];align=center;fontSize=12;image=img/lib/azure2/app_services/App_Services.svg;" vertex="1" parent="Pq4CZ3vSwKTIHolnJaVL-15">
          <mxGeometry x="16" y="93" width="45" height="45" as="geometry" />
        </mxCell>
        <mxCell id="Pq4CZ3vSwKTIHolnJaVL-21" value="" style="image;aspect=fixed;html=1;points=[];align=center;fontSize=12;image=img/lib/azure2/app_services/App_Services.svg;" vertex="1" parent="Pq4CZ3vSwKTIHolnJaVL-15">
          <mxGeometry x="136" y="93" width="45" height="45" as="geometry" />
        </mxCell>
        <mxCell id="Pq4CZ3vSwKTIHolnJaVL-20" value="" style="image;aspect=fixed;html=1;points=[];align=center;fontSize=12;image=img/lib/azure2/app_services/App_Services.svg;" vertex="1" parent="Pq4CZ3vSwKTIHolnJaVL-15">
          <mxGeometry x="77.5" y="93" width="45" height="45" as="geometry" />
        </mxCell>
        <mxCell id="Pq4CZ3vSwKTIHolnJaVL-24" value="App Service" style="text;strokeColor=none;align=center;fillColor=none;html=1;verticalAlign=middle;whiteSpace=wrap;rounded=0;" vertex="1" parent="Pq4CZ3vSwKTIHolnJaVL-15">
          <mxGeometry x="100" y="15" width="60" height="30" as="geometry" />
        </mxCell>
        <mxCell id="Pq4CZ3vSwKTIHolnJaVL-17" style="edgeStyle=orthogonalEdgeStyle;rounded=0;orthogonalLoop=1;jettySize=auto;html=1;entryX=0.5;entryY=1.075;entryDx=0;entryDy=0;entryPerimeter=0;" edge="1" parent="1" source="Pq4CZ3vSwKTIHolnJaVL-1" target="Pq4CZ3vSwKTIHolnJaVL-2">
          <mxGeometry relative="1" as="geometry">
            <Array as="points">
              <mxPoint x="176" y="375" />
              <mxPoint x="110" y="375" />
            </Array>
          </mxGeometry>
        </mxCell>
        <mxCell id="Pq4CZ3vSwKTIHolnJaVL-22" style="edgeStyle=orthogonalEdgeStyle;rounded=0;orthogonalLoop=1;jettySize=auto;html=1;entryX=0;entryY=0.889;entryDx=0;entryDy=0;entryPerimeter=0;" edge="1" parent="1" source="Pq4CZ3vSwKTIHolnJaVL-3" target="Pq4CZ3vSwKTIHolnJaVL-19">
          <mxGeometry relative="1" as="geometry" />
        </mxCell>
        <mxCell id="Pq4CZ3vSwKTIHolnJaVL-28" value="VNET 1" style="text;html=1;align=center;verticalAlign=middle;whiteSpace=wrap;rounded=0;" vertex="1" parent="1">
          <mxGeometry x="90" y="520" width="80" height="30" as="geometry" />
        </mxCell>
        <mxCell id="Pq4CZ3vSwKTIHolnJaVL-29" value="VNET 2" style="text;html=1;align=center;verticalAlign=middle;whiteSpace=wrap;rounded=0;" vertex="1" parent="1">
          <mxGeometry x="30" y="160" width="61" height="30" as="geometry" />
        </mxCell>
      </root>
    </mxGraphModel>
  </diagram>
</mxfile>
